<svg width="17" height="16" viewBox="0 0 17 16" fill="none" xmlns="http://www.w3.org/2000/svg">
<g clip-path="url(#clip0_470_13529)">
<path d="M3.91194 14.4889C3.17692 14.489 2.47134 14.2001 1.94749 13.6845L1.88971 13.6267C1.62651 13.3699 1.41739 13.063 1.27465 12.7241C1.13191 12.3852 1.05845 12.0211 1.0586 11.6534C1.05767 11.2552 1.13576 10.8609 1.28834 10.4932C1.44093 10.1254 1.66497 9.79165 1.94749 9.51114L8.83638 2.69781C9.53632 1.96904 10.4945 1.54437 11.5046 1.51527C12.5146 1.48618 13.4956 1.85499 14.2364 2.54226C14.5705 2.8755 14.8349 3.2719 15.0142 3.70837C15.1935 4.14483 15.2841 4.61262 15.2808 5.08448C15.2769 5.61146 15.1688 6.13246 14.9629 6.61755C14.7569 7.10265 14.4572 7.54226 14.0808 7.91114L7.88971 14.0445C7.85123 14.0962 7.80194 14.139 7.74526 14.1698C7.68858 14.2006 7.62588 14.2187 7.5615 14.2229C7.49713 14.227 7.43263 14.2171 7.37247 14.1938C7.31232 14.1705 7.25797 14.1343 7.21318 14.0879C7.16839 14.0415 7.13424 13.9859 7.11311 13.9249C7.09198 13.864 7.08437 13.7992 7.0908 13.735C7.09724 13.6708 7.11757 13.6088 7.15038 13.5532C7.1832 13.4977 7.22771 13.45 7.28082 13.4134L13.4542 7.28003C13.7473 6.99384 13.9811 6.65257 14.142 6.27579C14.303 5.89901 14.3879 5.49416 14.3919 5.08448C14.3952 4.72992 14.3276 4.37828 14.1933 4.05013C14.059 3.72198 13.8606 3.42392 13.6097 3.17337C13.0354 2.6502 12.2787 2.37338 11.5024 2.40247C10.726 2.43156 9.99214 2.76424 9.4586 3.32892L2.59194 10.1423C2.38958 10.3387 2.22838 10.5736 2.11774 10.833C2.00709 11.0924 1.94922 11.3713 1.94749 11.6534C1.94629 11.9011 1.99441 12.1465 2.08902 12.3754C2.18364 12.6043 2.32287 12.8121 2.4986 12.9867L2.55638 13.0445C2.95405 13.4107 3.4796 13.6061 4.01991 13.5886C4.56022 13.5712 5.07207 13.3422 5.44527 12.9511L11.3786 7.08448C11.4908 6.97103 11.5793 6.83634 11.6388 6.68829C11.6983 6.54024 11.7277 6.3818 11.7253 6.22226C11.7262 6.08368 11.6996 5.94629 11.647 5.8181C11.5943 5.68991 11.5167 5.57348 11.4186 5.47559C11.1942 5.26977 10.8978 5.16047 10.5934 5.17128C10.2891 5.18209 10.0012 5.31214 9.79193 5.53337L5.70305 9.5867C5.61936 9.6698 5.50608 9.71625 5.38814 9.71584C5.2702 9.71542 5.15726 9.66817 5.07416 9.58448C4.99106 9.50079 4.9446 9.38751 4.94502 9.26957C4.94544 9.15163 4.99269 9.03869 5.07638 8.95559L9.18305 4.88892C9.55948 4.50329 10.0724 4.2811 10.6112 4.27029C11.15 4.25948 11.6715 4.46092 12.063 4.83114C12.2431 5.01448 12.3847 5.23202 12.4793 5.47094C12.574 5.70987 12.6198 5.96533 12.6142 6.22226C12.6137 6.49893 12.558 6.77273 12.4504 7.02762C12.3428 7.28252 12.1854 7.51338 11.9875 7.7067L6.07193 13.5911C5.49883 14.164 4.72227 14.4868 3.91194 14.4889Z" fill="#868F9A"/>
</g>
<defs>
<clipPath id="clip0_470_13529">
<rect width="16" height="16" fill="white" transform="translate(0.167969)"/>
</clipPath>
</defs>
</svg>
