<svg width="23" height="23" viewBox="0 0 23 23" fill="none" xmlns="http://www.w3.org/2000/svg">
<path d="M4.15798 9.52065C4.19485 9.06122 4.40342 8.63254 4.74214 8.31997C5.08087 8.0074 5.5249 7.83389 5.98581 7.83398H17.039C17.4999 7.83389 17.9439 8.0074 18.2826 8.31997C18.6214 8.63254 18.8299 9.06122 18.8668 9.52065L19.6029 18.6873C19.6231 18.9396 19.5909 19.1933 19.5083 19.4325C19.4257 19.6717 19.2945 19.8912 19.1228 20.0772C18.9512 20.2632 18.743 20.4117 18.5112 20.5132C18.2794 20.6148 18.029 20.6672 17.776 20.6673H5.24881C4.99574 20.6672 4.74542 20.6148 4.51362 20.5132C4.28182 20.4117 4.07356 20.2632 3.90195 20.0772C3.73033 19.8912 3.59908 19.6717 3.51647 19.4325C3.43385 19.1933 3.40165 18.9396 3.42189 18.6873L4.15798 9.52065Z" stroke="#868F9A" stroke-width="1.5" stroke-linecap="round" stroke-linejoin="round"/>
<path d="M15.179 10.584V6.00065C15.179 5.02819 14.7927 4.09556 14.1051 3.40793C13.4175 2.72029 12.4848 2.33398 11.5124 2.33398C10.5399 2.33398 9.60728 2.72029 8.91964 3.40793C8.23201 4.09556 7.8457 5.02819 7.8457 6.00065V10.584" stroke="#868F9A" stroke-width="1.5" stroke-linecap="round" stroke-linejoin="round"/>
</svg>
