<svg width="20" height="21" viewBox="0 0 20 21" fill="none" xmlns="http://www.w3.org/2000/svg">
<path d="M6.85724 17.1558L6.85719 17.1557L6.8496 17.1629C6.71182 17.292 6.62714 17.3627 6.56962 17.4032V15.2142V14.4642H5.81962L5.46399 14.4642L5.46151 14.4642C4.47345 14.4675 3.82455 14.1981 3.4208 13.7931C3.01621 13.3871 2.75 12.7367 2.75 11.7576V5.96399C2.75 4.98492 3.01619 4.33417 3.4213 3.92714C3.8258 3.52072 4.47557 3.25 5.46399 3.25H15.206C16.1977 3.25 16.8471 3.52229 17.2507 3.92916C17.6554 4.33708 17.92 4.98817 17.92 5.96399V11.7576C17.92 12.7337 17.6552 13.3869 17.2503 13.7958C16.8469 14.203 16.1984 14.475 15.2083 14.4716L15.2068 14.4716L10.1015 14.4642L9.81031 14.4638L9.59512 14.6599L6.85724 17.1558ZM5.46399 15.2142H5.424C5.43729 15.2142 5.45062 15.2142 5.46399 15.2142ZM10.1004 15.2142L15.2057 15.2216L5.81962 17.4151C5.81962 17.884 6.06907 18.1941 6.49279 18.1941C6.79517 18.1941 7.0072 18.0431 7.3625 17.7101L10.1004 15.2142Z" stroke="#8D64F8" stroke-width="1.5"/>
</svg>
