<svg width="20" height="21" viewBox="0 0 20 21" fill="none" xmlns="http://www.w3.org/2000/svg">
<path d="M15.3058 11.631L15.3058 11.6309L15.3004 11.6363L9.9974 16.9393L4.69439 11.6363L4.69447 11.6363L4.68533 11.6274C3.43959 10.4232 2.41406 9.16015 2.41406 7.58333C2.41406 6.56667 2.81793 5.59165 3.53682 4.87276C4.25571 4.15387 5.23073 3.75 6.2474 3.75C6.90559 3.75 7.42334 3.84278 7.90416 4.0522C8.38983 4.26372 8.88481 4.61474 9.46707 5.197C9.75996 5.48989 10.2348 5.48989 10.5277 5.197C11.11 4.61474 11.605 4.26372 12.0906 4.0522C12.5714 3.84278 13.0892 3.75 13.7474 3.75C14.7641 3.75 15.7391 4.15387 16.458 4.87276C17.1769 5.59165 17.5807 6.56667 17.5807 7.58333C17.5807 9.15113 16.5491 10.4127 15.3058 11.631Z" stroke="#ED3D2E" stroke-width="1.5" stroke-linecap="round" stroke-linejoin="round"/>
</svg>
