<svg width="14" height="14" viewBox="0 0 14 14" fill="none" xmlns="http://www.w3.org/2000/svg">
<path d="M7 0C3.13403 0 0 3.13403 0 7C0 10.8662 3.13403 14 7 14C10.8662 14 14.0002 10.8662 14.0002 7C14.0002 3.13403 10.8662 0 7 0ZM7 13.1388C3.62272 13.1388 0.875 10.3773 0.875 6.99997C0.875 3.62269 3.62272 0.874973 7 0.874973C10.3773 0.874973 13.1252 3.6227 13.1252 6.99997C13.1252 10.3772 10.3773 13.1388 7 13.1388ZM6.35666 10.944H7.45741V9.83324H6.35666V10.944ZM6.98709 3.05614C6.34616 3.05614 5.81811 3.22896 5.40336 3.57416C4.98861 3.91955 4.78692 4.61124 4.7972 5.18436L4.81339 5.2163H5.81745C5.81745 4.87439 5.93142 4.38308 6.15936 4.20677C6.38708 4.03067 6.66314 3.94252 6.98733 3.94252C7.36095 3.94252 7.64817 4.04402 7.84965 4.247C8.0509 4.45 8.15129 4.74029 8.15129 5.11741C8.15129 5.43438 8.07692 5.70497 7.92751 5.92919C7.77767 6.15341 7.52654 6.47389 7.17436 6.89062C6.81101 7.2183 6.58658 7.48167 6.50126 7.68095C6.41573 7.88046 6.37133 8.23833 6.36804 8.75436H7.42023C7.42023 8.43061 7.44078 8.19195 7.4817 8.03883C7.52237 7.88592 7.63898 7.71312 7.83126 7.52083C8.24448 7.12227 8.57633 6.73246 8.82767 6.35119C9.07836 5.97033 9.20392 5.55011 9.20392 5.09074C9.20392 4.4498 9.01011 3.95039 8.62181 3.59274C8.23331 3.23486 7.68841 3.05614 6.98709 3.05614Z" fill="#868F9A"/>
</svg>
