<svg width="23" height="23" viewBox="0 0 23 23" fill="none" xmlns="http://www.w3.org/2000/svg">
<path d="M4.23838 20.6673C4.23838 20.6673 2.79102 20.6673 2.79102 19.2199C2.79102 17.7726 4.23838 13.4305 11.4752 13.4305C18.7121 13.4305 20.1594 17.7726 20.1594 19.2199C20.1594 20.6673 18.7121 20.6673 18.7121 20.6673H4.23838ZM11.4752 11.0182C12.6268 11.0182 13.7313 10.5607 14.5456 9.74642C15.3599 8.93212 15.8173 7.82769 15.8173 6.67609C15.8173 5.52449 15.3599 4.42006 14.5456 3.60576C13.7313 2.79146 12.6268 2.33398 11.4752 2.33398C10.3236 2.33398 9.2192 2.79146 8.40489 3.60576C7.59059 4.42006 7.13312 5.52449 7.13312 6.67609C7.13312 7.82769 7.59059 8.93212 8.40489 9.74642C9.2192 10.5607 10.3236 11.0182 11.4752 11.0182Z" stroke="#868F9A" stroke-width="1.5"/>
</svg>
