<svg width="20" height="20" viewBox="0 0 20 20" fill="none" xmlns="http://www.w3.org/2000/svg">
<path d="M3.3249 8.19935C3.35842 7.78169 3.54803 7.39197 3.85596 7.10782C4.1639 6.82367 4.56756 6.66593 4.98657 6.66602H15.0349C15.4539 6.66593 15.8576 6.82367 16.1655 7.10782C16.4734 7.39197 16.663 7.78169 16.6966 8.19935L17.3657 16.5327C17.3841 16.762 17.3549 16.9927 17.2798 17.2101C17.2047 17.4276 17.0853 17.6271 16.9293 17.7962C16.7733 17.9653 16.584 18.1003 16.3733 18.1926C16.1625 18.2849 15.935 18.3326 15.7049 18.3327H4.31657C4.0865 18.3326 3.85894 18.2849 3.64822 18.1926C3.43749 18.1003 3.24816 17.9653 3.09215 17.7962C2.93613 17.6271 2.81682 17.4276 2.74171 17.2101C2.6666 16.9927 2.63733 16.762 2.65573 16.5327L3.3249 8.19935Z" stroke="white" stroke-width="1.5" stroke-linecap="round" stroke-linejoin="round"/>
<path d="M13.3444 9.16602V4.99935C13.3444 4.11529 12.9932 3.26745 12.3681 2.64233C11.743 2.01721 10.8951 1.66602 10.0111 1.66602C9.12701 1.66602 8.27917 2.01721 7.65404 2.64233C7.02892 3.26745 6.67773 4.11529 6.67773 4.99935V9.16602" stroke="white" stroke-width="1.5" stroke-linecap="round" stroke-linejoin="round"/>
</svg>
